<?xml version="1.0" encoding="utf-8"?>
<!-- Generator: Adobe Illustrator 19.1.0, SVG Export Plug-In . SVG Version: 6.00 Build 0)  -->
<svg version="1.1" id="Layer_1" xmlns="http://www.w3.org/2000/svg" xmlns:xlink="http://www.w3.org/1999/xlink" x="0px" y="0px"
	 viewBox="70.7 345.2 630.3 115.3" style="enable-background:new 70.7 345.2 630.3 115.3;" xml:space="preserve">
<style type="text/css">
	.st0{fill:#FFFFFF;}
</style>
<g>
	<path class="st0" d="M70.7,352.3h28.2c4.9,0,9.2,0.5,12.9,1.6c3.7,1.1,6.8,2.5,9.2,4.4c2.5,1.9,4.3,4.1,5.6,6.7
		c1.2,2.6,1.9,5.4,1.9,8.5c0,2.5-0.5,4.9-1.4,7.1c-1,2.2-2.3,4.2-4.1,6c-1.8,1.8-3.9,3.3-6.3,4.6c-2.5,1.3-5.2,2.3-8.1,3l29.7,39.6
		h-16L94,395.6h-9.6V434H70.7V352.3z M84.4,391.5h7.9c3.1,0,5.9-0.4,8.5-1.2c2.6-0.8,4.9-2,6.8-3.5c1.9-1.5,3.4-3.3,4.5-5.5
		c1.1-2.1,1.6-4.5,1.6-7.2c0-2.4-0.4-4.7-1.3-6.7c-0.9-2.1-2.1-3.8-3.6-5.3s-3.3-2.6-5.4-3.4c-2.1-0.8-4.4-1.2-6.9-1.2H84.4V391.5z"
		/>
	<path class="st0" d="M171.8,435.3c-4.3,0-8.3-0.8-12-2.4c-3.7-1.6-7-3.8-9.8-6.5c-2.8-2.8-5-6-6.6-9.7c-1.6-3.7-2.4-7.7-2.4-11.9
		c0-5,0.7-9.7,2.2-14c1.5-4.3,3.6-8,6.3-11.1c2.7-3.1,5.9-5.6,9.8-7.3c3.9-1.7,8-2.6,12.7-2.6c4.1,0,7.9,0.7,11.4,2.2
		c3.4,1.4,6.4,3.4,8.8,5.8c2.5,2.4,4.4,5.3,5.7,8.5c1.4,3.2,2.1,6.6,2.1,10.1h-47c0,4.2,0.5,8.1,1.6,11.7c1.1,3.6,2.6,6.7,4.6,9.3
		s4.3,4.7,7,6.2s5.7,2.2,9,2.2c2.7,0,5.4-0.4,7.9-1.3c2.5-0.9,4.8-2,6.8-3.5c2-1.4,3.8-3.1,5.2-4.9c1.4-1.9,2.4-3.8,3-5.7l3.6,1.6
		c-0.9,3.2-2.4,6.3-4.4,9.1c-2,2.8-4.4,5.3-7,7.4c-2.7,2.1-5.6,3.8-8.8,5C178.3,434.7,175.1,435.3,171.8,435.3z M184.3,391.2
		c0-2.4-0.4-4.6-1.3-6.7c-0.8-2.1-2-3.8-3.5-5.3s-3.2-2.7-5.2-3.5c-2-0.9-4.1-1.3-6.4-1.3c-1.9,0-3.7,0.4-5.4,1.3s-3.3,2-4.6,3.5
		s-2.5,3.3-3.3,5.3s-1.4,4.3-1.6,6.7H184.3z"/>
	<path class="st0" d="M247.9,435.3c-4,1-7.9,1.1-11.8,0.4c-3.9-0.7-7.5-2.1-10.8-4.2c-3.3-2.1-6.1-4.8-8.5-8.1
		c-2.4-3.3-4.1-7-5.2-11.2c-1.2-4.6-1.4-9.2-0.8-13.6c0.6-4.5,2-8.6,4.1-12.3c2.1-3.7,4.9-7,8.3-9.7c3.4-2.7,7.3-4.6,11.7-5.7
		c3.4-0.9,6.6-1.3,9.7-1.2c3.1,0,5.8,0.4,8.2,1.2s4.4,1.9,6,3.4s2.7,3.3,3.2,5.3c0.2,0.9,0.2,1.8-0.1,2.8c-0.3,0.9-0.7,1.8-1.3,2.6
		c-0.6,0.8-1.3,1.5-2.2,2.1c-0.9,0.6-1.8,1-2.8,1.3c-1.1,0.3-2.1,0.3-3.1,0.1s-1.8-0.5-2.6-1s-1.4-1.1-2-1.8
		c-0.5-0.7-0.9-1.5-1.1-2.3c-0.3-1.4-0.8-2.7-1.4-3.8c-0.6-1.2-1.4-2.1-2.4-2.8c-1-0.7-2.2-1.1-3.7-1.3s-3.2,0-5.3,0.5
		c-2.8,0.7-5.1,1.9-7,3.5c-1.9,1.7-3.4,3.6-4.4,5.9c-1,2.3-1.6,4.8-1.8,7.5c-0.2,2.8,0.1,5.6,0.8,8.5c1,3.9,2.4,7.5,4.3,10.7
		c1.9,3.2,4.1,5.9,6.6,8.1c2.5,2.2,5.3,3.7,8.3,4.6c3,0.9,6.1,0.9,9.3,0.1c2.8-0.7,5.2-1.8,7.1-3.2c1.9-1.4,3.4-3.1,4.5-5
		c1.2-1.9,2-4,2.6-6.3c0.6-2.3,1.1-4.7,1.4-7.1l4,0.6c-0.1,4.1-0.6,7.9-1.6,11.3c-1,3.5-2.4,6.5-4.3,9.2c-1.8,2.7-4.1,4.9-6.8,6.8
		C254.5,433.1,251.4,434.4,247.9,435.3z"/>
	<path class="st0" d="M309.8,371h12.5v12.8c1.2-1.6,2.6-3.2,4.2-4.9c1.5-1.7,3.3-3.2,5.1-4.5c1.9-1.4,3.9-2.5,6.2-3.4
		c2.2-0.9,4.7-1.3,7.4-1.3c3.7,0,7.1,0.8,10.1,2.3c3,1.6,5.6,3.7,7.8,6.4c2.1,2.7,3.8,5.8,5,9.4c1.2,3.6,1.8,7.4,1.8,11.5
		c0,5.2-0.7,10-2.2,14.4c-1.4,4.4-3.5,8.2-6.2,11.4s-5.9,5.7-9.7,7.5c-3.8,1.8-8,2.7-12.8,2.7c-1.8,0-3.4-0.1-4.9-0.3
		c-1.5-0.2-2.9-0.4-4.2-0.8c-1.3-0.4-2.6-0.8-3.9-1.4c-1.3-0.6-2.5-1.3-3.8-2.1v29.8h-12.5V371H309.8z M322.3,416.9
		c0,1.9,0.4,3.7,1.2,5.3c0.8,1.7,2,3.1,3.5,4.4c1.5,1.2,3.3,2.2,5.3,2.9c2.1,0.7,4.3,1.1,6.8,1.1c2.3,0,4.5-0.6,6.6-1.8
		s3.8-2.9,5.4-5.1c1.5-2.2,2.8-4.8,3.6-7.8c0.9-3,1.3-6.4,1.3-10.1c0-4.6-0.4-8.7-1.2-12.2c-0.8-3.5-2-6.3-3.4-8.6
		c-1.5-2.3-3.2-4-5.2-5.2c-2-1.1-4.2-1.7-6.6-1.7c-1.8,0-3.6,0.3-5.2,0.8c-1.7,0.6-3.2,1.3-4.7,2.3c-1.5,0.9-2.8,2-4.1,3.3
		c-1.3,1.2-2.4,2.5-3.3,3.8L322.3,416.9L322.3,416.9z"/>
	<path class="st0" d="M410.2,435.3c-4.3,0-8.3-0.8-12-2.4c-3.7-1.6-7-3.8-9.8-6.5c-2.8-2.8-5-6-6.6-9.7c-1.6-3.7-2.4-7.6-2.4-11.9
		c0-5,0.7-9.7,2.2-14c1.5-4.3,3.6-8,6.3-11.1c2.7-3.1,5.9-5.6,9.8-7.3c3.9-1.7,8-2.6,12.7-2.6c4.1,0,7.9,0.7,11.4,2.2
		c3.4,1.4,6.4,3.4,8.8,5.8c2.5,2.4,4.4,5.3,5.7,8.5c1.4,3.2,2.1,6.6,2.1,10.1h-46.9c0,4.2,0.5,8.1,1.6,11.7c1.1,3.6,2.6,6.7,4.6,9.3
		s4.3,4.7,7,6.2s5.7,2.2,9,2.2c2.7,0,5.4-0.4,7.9-1.3c2.5-0.9,4.8-2,6.8-3.5c2-1.4,3.8-3.1,5.2-4.9c1.4-1.9,2.4-3.8,3-5.7l3.6,1.6
		c-0.9,3.2-2.4,6.3-4.4,9.1c-2,2.8-4.4,5.3-7,7.4c-2.7,2.1-5.6,3.8-8.8,5C416.7,434.7,413.4,435.3,410.2,435.3z M422.7,391.2
		c0-2.4-0.4-4.6-1.3-6.7c-0.8-2.1-2-3.8-3.5-5.3s-3.2-2.7-5.2-3.5c-2-0.9-4.1-1.3-6.4-1.3c-1.9,0-3.7,0.4-5.4,1.3
		c-1.7,0.9-3.3,2-4.6,3.5c-1.3,1.5-2.5,3.3-3.3,5.3s-1.4,4.3-1.6,6.7H422.7z"/>
	<path class="st0" d="M494,352.3h32.9c4.3,0,8.3,0.5,12,1.5c3.6,1,6.7,2.3,9.3,4.1c2.6,1.8,4.6,3.9,6.1,6.3c1.4,2.5,2.2,5.2,2.2,8.1
		c0,2.2-0.2,4.2-0.7,6c-0.5,1.8-1.3,3.4-2.4,4.9c-1.1,1.5-2.7,2.9-4.6,4.3c-1.9,1.3-4.3,2.7-7.2,4.1v0.2c2.9,0.5,5.5,1.3,7.9,2.4
		c2.4,1.1,4.4,2.5,6,4.2c1.7,1.7,2.9,3.7,3.8,5.9c0.9,2.2,1.3,4.7,1.3,7.5c0,3.1-0.7,6-2,8.7c-1.3,2.7-3.3,5-5.7,7
		c-2.5,2-5.5,3.6-9,4.7c-3.5,1.1-7.4,1.7-11.8,1.7H494V352.3z M507.8,389.1h17.5c2.7,0,5.2-0.4,7.3-1.2c2.1-0.8,4-1.9,5.4-3.3
		c1.5-1.4,2.6-3,3.3-4.9c0.8-1.9,1.1-3.9,1.1-6.2c0-2.4-0.4-4.6-1.3-6.5c-0.9-2-2.3-3.6-4.2-5c-1.9-1.4-4.3-2.5-7.3-3.2
		c-2.9-0.7-6.4-1.1-10.5-1.1h-11.3V389.1z M507.8,428h14.8c4,0,7.4-0.4,10.4-1.1c2.9-0.8,5.4-1.8,7.3-3.2c1.9-1.4,3.3-3,4.2-5
		c0.9-1.9,1.4-4.1,1.4-6.4c0-2.6-0.4-5-1.2-7.2c-0.8-2.2-2.2-4.1-4-5.8c-1.9-1.6-4.3-2.9-7.3-3.8c-3-0.9-6.7-1.4-11.1-1.4h-14.4
		L507.8,428L507.8,428z"/>
	<path class="st0" d="M603.4,435.3c-4.8,0-9.2-0.8-13.3-2.5c-4.1-1.7-7.6-4-10.5-6.9c-2.9-2.9-5.3-6.3-6.9-10.2
		c-1.7-3.9-2.5-8-2.5-12.5c0-4.6,0.8-9,2.5-13.1c1.7-4.1,4-7.6,6.9-10.7c2.9-3,6.5-5.4,10.5-7.2c4.1-1.8,8.5-2.6,13.3-2.6
		s9.2,0.8,13.3,2.4c4,1.6,7.5,3.8,10.5,6.6c3,2.8,5.3,6.1,6.9,9.8c1.7,3.8,2.5,7.8,2.5,12.1c0,4.8-0.8,9.2-2.5,13.4
		c-1.7,4.2-4,7.9-6.9,11c-3,3.1-6.5,5.6-10.5,7.4C612.6,434.4,608.2,435.3,603.4,435.3z M605.7,430.7c2.5,0,4.7-0.6,6.8-1.9
		c2.1-1.3,3.8-3,5.3-5.1s2.7-4.6,3.5-7.5s1.2-5.9,1.2-9c0-4.6-0.4-8.8-1.2-12.8s-2.1-7.4-3.8-10.4c-1.8-3-4-5.3-6.9-7
		c-2.8-1.7-6.3-2.5-10.4-2.5c-2.1,0-4.1,0.6-6.1,1.8c-2,1.2-3.7,2.9-5.2,5c-1.5,2.1-2.7,4.6-3.6,7.4c-0.9,2.8-1.3,5.8-1.3,9
		c0,4.6,0.5,8.9,1.5,12.9s2.4,7.5,4.2,10.5s4.1,5.4,6.8,7.1C599.3,429.8,602.3,430.7,605.7,430.7z"/>
	<path class="st0" d="M643.3,433.9h-6.9l26.4-32.2L640.5,371h14.7l15.4,21.1l17.4-21h6.9L674,396.6l27,37.4h-14.8l-20-27.8
		L643.3,433.9z"/>
	<rect x="281.3" y="371.3" class="st0" width="12.4" height="62.7"/>
	<path class="st0" d="M296.2,353.9c0,4.6-4,8.8-8.7,8.8c-4.7,0-8.8-4.2-8.8-8.8c0-4.7,4.3-8.7,8.8-8.7S296.2,349.2,296.2,353.9z"/>
</g>
</svg>
