<svg version="1.1" id="Layer_1" xmlns="http://www.w3.org/2000/svg" xmlns:xlink="http://www.w3.org/1999/xlink" x="0px" y="0px"
	 viewBox="0 0 396 70.4" style="enable-background:new 0 0 396 70.4;" xml:space="preserve">
<style type="text/css">
	.st0{clip-path:url(#SVGID_2_);fill:#FFFFFF;}
	.st1{fill:#FFFFFF;}
	.st2{clip-path:url(#SVGID_4_);fill:#FFFFFF;}
	.st3{clip-path:url(#SVGID_6_);fill:#FFFFFF;}
</style>
<g>
	<defs>
		<rect id="SVGID_1_" width="396" height="70.4"/>
	</defs>
	<clipPath id="SVGID_2_">
		<use xlink:href="#SVGID_1_"  style="overflow:visible;"/>
	</clipPath>
	<path class="st0" d="M8.6,28.7h5c1.9,0,3.7-0.2,5.4-0.7c1.6-0.5,3-1.2,4.3-2.1c1.2-0.9,2.1-2,2.8-3.3c0.7-1.3,1-2.7,1-4.4
		c0-1.5-0.3-2.8-0.8-4.1c-0.5-1.2-1.3-2.3-2.2-3.2c-1-0.9-2.1-1.6-3.4-2.1c-1.3-0.5-2.8-0.7-4.3-0.7H8.6V28.7z M0,5.1h17.7
		c3.1,0,5.8,0.3,8.1,1c2.3,0.6,4.3,1.5,5.8,2.7c1.5,1.1,2.7,2.5,3.5,4.1c0.8,1.6,1.2,3.3,1.2,5.1c0,1.5-0.3,3-0.9,4.3
		c-0.6,1.3-1.5,2.5-2.6,3.6c-1.1,1.1-2.4,2-4,2.8c-1.5,0.8-3.3,1.4-5.1,1.8l18.7,23.9h-10L14.7,31.2h-6v23.2H0V5.1z"/>
	<path class="st0" d="M71.4,28.6c0-1.4-0.3-2.8-0.8-4c-0.5-1.2-1.3-2.3-2.2-3.2c-0.9-0.9-2-1.6-3.2-2.1c-1.2-0.5-2.6-0.8-4-0.8
		c-1.2,0-2.3,0.3-3.4,0.8c-1.1,0.5-2.1,1.2-2.9,2.1s-1.5,2-2.1,3.2c-0.6,1.2-0.9,2.6-1,4L71.4,28.6z M63.6,55.2
		c-2.7,0-5.2-0.5-7.5-1.4c-2.3-1-4.4-2.3-6.1-3.9c-1.8-1.7-3.1-3.6-4.2-5.8c-1-2.2-1.5-4.6-1.5-7.2c0-3,0.5-5.9,1.4-8.5
		s2.2-4.8,3.9-6.7c1.7-1.9,3.7-3.4,6.1-4.4c2.4-1.1,5-1.6,8-1.6c2.6,0,5,0.4,7.1,1.3c2.2,0.9,4,2,5.6,3.5c1.5,1.5,2.7,3.2,3.6,5.1
		c0.9,1.9,1.3,4,1.3,6.1H51.8c0,2.5,0.3,4.9,1,7.1c0.7,2.2,1.6,4.1,2.9,5.6c1.2,1.6,2.7,2.8,4.4,3.7c1.7,0.9,3.6,1.3,5.6,1.3
		c1.7,0,3.4-0.3,4.9-0.8c1.6-0.5,3-1.2,4.3-2.1c1.3-0.9,2.4-1.9,3.3-3c0.9-1.1,1.5-2.3,1.9-3.4l2.2,1c-0.6,2-1.5,3.8-2.7,5.5
		c-1.3,1.7-2.7,3.2-4.4,4.5c-1.7,1.3-3.5,2.3-5.5,3C67.6,54.8,65.6,55.2,63.6,55.2"/>
	<path class="st0" d="M109.4,55.2c-2.5,0.4-5,0.3-7.4-0.4s-4.6-1.7-6.5-3.1c-1.9-1.4-3.6-3.2-4.9-5.3c-1.3-2.1-2.2-4.5-2.6-7
		c-0.5-2.8-0.4-5.6,0.3-8.2c0.6-2.7,1.7-5.1,3.3-7.2c1.5-2.1,3.4-3.9,5.7-5.4c2.3-1.4,4.8-2.4,7.6-2.8c2.2-0.3,4.2-0.4,6.1-0.2
		s3.6,0.6,5.1,1.2c1.5,0.6,2.7,1.4,3.6,2.4c0.9,1,1.5,2.1,1.7,3.4c0.1,0.6,0,1.1-0.2,1.7c-0.2,0.5-0.5,1-1,1.5
		c-0.4,0.4-0.9,0.8-1.5,1.1c-0.6,0.3-1.2,0.5-1.8,0.6c-0.7,0.1-1.4,0.1-2-0.1c-0.6-0.2-1.1-0.4-1.6-0.7c-0.5-0.3-0.8-0.7-1.1-1.2
		c-0.3-0.5-0.5-0.9-0.6-1.5c-0.1-0.9-0.4-1.7-0.7-2.4c-0.3-0.7-0.8-1.3-1.3-1.8c-0.6-0.5-1.3-0.8-2.2-1c-0.9-0.2-2-0.2-3.3,0
		c-1.8,0.3-3.3,0.9-4.6,1.8s-2.3,2-3.1,3.3c-0.8,1.3-1.3,2.8-1.5,4.4c-0.2,1.7-0.2,3.4,0.1,5.1c0.4,2.4,1.1,4.6,2.1,6.7
		c1,2,2.2,3.8,3.7,5.2c1.5,1.4,3.1,2.5,4.9,3.2c1.8,0.7,3.8,0.9,5.8,0.6c1.8-0.3,3.3-0.8,4.6-1.5c1.2-0.8,2.3-1.7,3.1-2.7
		c0.8-1.1,1.5-2.3,2-3.6c0.5-1.3,0.9-2.7,1.2-4.2l2.5,0.6c-0.3,2.5-0.8,4.7-1.6,6.7c-0.8,2-1.9,3.8-3.2,5.3
		c-1.3,1.5-2.9,2.8-4.6,3.7C113.7,54.2,111.7,54.8,109.4,55.2"/>
</g>
<polygon class="st1" points="132.3,17.7 137.9,15.6 140.1,15.6 140.1,54.3 132.3,54.3 "/>
<g>
	<defs>
		<rect id="SVGID_3_" width="396" height="70.4"/>
	</defs>
	<clipPath id="SVGID_4_">
		<use xlink:href="#SVGID_3_"  style="overflow:visible;"/>
	</clipPath>
	<path class="st2" d="M158.1,44.1c0,1.1,0.3,2.2,0.8,3.2c0.5,1,1.2,1.9,2.2,2.6c0.9,0.7,2,1.3,3.3,1.8c1.3,0.4,2.7,0.7,4.3,0.7
		c1.5,0,2.9-0.4,4.1-1.1c1.3-0.7,2.4-1.7,3.4-3.1c1-1.3,1.7-2.9,2.3-4.7c0.6-1.8,0.8-3.9,0.8-6.1c0-2.8-0.3-5.3-0.8-7.3
		c-0.5-2.1-1.2-3.8-2.2-5.2c-0.9-1.4-2-2.4-3.3-3.1c-1.3-0.7-2.6-1-4.1-1c-1.2,0-2.3,0.2-3.3,0.5c-1,0.3-2,0.8-2.9,1.4
		c-0.9,0.6-1.8,1.2-2.6,2c-0.8,0.7-1.5,1.5-2.1,2.3V44.1z M158.1,16.4v7.7c0.8-1,1.7-2,2.6-3c1-1,2-1.9,3.2-2.7
		c1.2-0.8,2.5-1.5,3.9-2c1.4-0.5,3-0.8,4.7-0.8c2.3,0,4.5,0.5,6.4,1.4c1.9,0.9,3.5,2.2,4.9,3.8c1.3,1.6,2.4,3.5,3.1,5.7
		c0.7,2.2,1.1,4.5,1.1,6.9c0,3.1-0.5,6-1.4,8.7s-2.2,4.9-3.9,6.9c-1.7,1.9-3.7,3.4-6.1,4.5c-2.4,1.1-5.1,1.6-8,1.6
		c-1.1,0-2.1-0.1-3.1-0.2c-0.9-0.1-1.8-0.3-2.7-0.5c-0.8-0.2-1.7-0.5-2.4-0.9c-0.8-0.4-1.6-0.8-2.4-1.3v18h-7.8v-51L158.1,16.4z"/>
	<path class="st2" d="M221.2,28.6c0-1.4-0.3-2.8-0.8-4c-0.5-1.2-1.3-2.3-2.2-3.2c-0.9-0.9-2-1.6-3.2-2.1c-1.2-0.5-2.6-0.8-4-0.8
		c-1.2,0-2.3,0.3-3.4,0.8c-1.1,0.5-2.1,1.2-2.9,2.1c-0.8,0.9-1.5,2-2.1,3.2c-0.6,1.2-0.9,2.6-1,4L221.2,28.6z M213.3,55.2
		c-2.7,0-5.2-0.5-7.5-1.4c-2.3-1-4.4-2.3-6.1-3.9c-1.8-1.7-3.1-3.6-4.2-5.8c-1-2.2-1.5-4.6-1.5-7.2c0-3,0.5-5.9,1.4-8.5
		c0.9-2.6,2.2-4.8,3.9-6.7c1.7-1.9,3.7-3.4,6.1-4.4c2.4-1.1,5-1.6,8-1.6c2.6,0,5,0.4,7.1,1.3c2.2,0.9,4,2,5.6,3.5
		c1.5,1.5,2.7,3.2,3.6,5.1c0.9,1.9,1.3,4,1.3,6.1h-29.5c0,2.5,0.3,4.9,1,7.1c0.7,2.2,1.6,4.1,2.9,5.6c1.2,1.6,2.7,2.8,4.4,3.7
		c1.7,0.9,3.6,1.3,5.6,1.3c1.7,0,3.4-0.3,4.9-0.8c1.6-0.5,3-1.2,4.3-2.1s2.4-1.9,3.3-3c0.9-1.1,1.5-2.3,1.9-3.4l2.2,1
		c-0.6,2-1.5,3.8-2.7,5.5c-1.3,1.7-2.7,3.2-4.4,4.5c-1.7,1.3-3.5,2.3-5.5,3S215.4,55.2,213.3,55.2"/>
	<path class="st2" d="M274.6,50.7h9.3c2.5,0,4.7-0.2,6.5-0.7c1.8-0.5,3.4-1.1,4.6-1.9c1.2-0.8,2.1-1.8,2.7-3
		c0.6-1.2,0.9-2.4,0.9-3.8c0-1.6-0.3-3-0.8-4.4c-0.5-1.3-1.4-2.5-2.5-3.5c-1.2-1-2.7-1.8-4.6-2.3c-1.9-0.6-4.2-0.8-7-0.8h-9.1V50.7z
		 M274.6,27.2h11c1.7,0,3.3-0.2,4.6-0.7c1.3-0.5,2.5-1.1,3.4-2c0.9-0.8,1.6-1.8,2.1-3c0.5-1.1,0.7-2.4,0.7-3.7
		c0-1.4-0.3-2.7-0.8-3.9c-0.6-1.2-1.4-2.2-2.7-3c-1.2-0.8-2.7-1.5-4.6-1.9c-1.8-0.4-4-0.7-6.6-0.7h-7.1V27.2z M266,5.1h20.7
		c2.7,0,5.2,0.3,7.5,0.9c2.3,0.6,4.2,1.4,5.9,2.5c1.6,1.1,2.9,2.3,3.8,3.8c0.9,1.5,1.4,3.1,1.4,4.9c0,1.3-0.1,2.5-0.4,3.6
		c-0.3,1.1-0.8,2-1.5,3c-0.7,0.9-1.7,1.8-2.9,2.6c-1.2,0.8-2.7,1.6-4.5,2.5v0.1c1.8,0.3,3.5,0.8,5,1.4c1.5,0.7,2.7,1.5,3.8,2.6
		c1,1,1.8,2.2,2.4,3.6c0.6,1.4,0.8,2.9,0.8,4.5c0,1.9-0.4,3.6-1.3,5.2c-0.8,1.6-2,3-3.6,4.2c-1.6,1.2-3.4,2.1-5.7,2.8
		c-2.2,0.7-4.7,1-7.4,1H266V5.1z"/>
	<path class="st2" d="M336.2,52.4c1.5,0,3-0.4,4.3-1.1c1.3-0.8,2.4-1.8,3.3-3.1c0.9-1.3,1.7-2.8,2.2-4.5c0.5-1.7,0.8-3.5,0.8-5.4
		c0-2.8-0.2-5.3-0.7-7.7c-0.5-2.4-1.3-4.5-2.4-6.3c-1.1-1.8-2.5-3.2-4.3-4.2s-3.9-1.5-6.5-1.5c-1.3,0-2.6,0.4-3.8,1.1
		c-1.2,0.7-2.3,1.7-3.3,3c-0.9,1.3-1.7,2.8-2.3,4.5c-0.6,1.7-0.8,3.5-0.8,5.4c0,2.8,0.3,5.4,0.9,7.8c0.6,2.4,1.5,4.5,2.7,6.3
		c1.2,1.8,2.6,3.2,4.3,4.3C332.1,51.8,334,52.4,336.2,52.4 M334.7,55.2c-3,0-5.8-0.5-8.4-1.5c-2.6-1-4.8-2.4-6.6-4.1
		c-1.9-1.7-3.3-3.8-4.3-6.1c-1-2.3-1.6-4.9-1.6-7.5c0-2.8,0.5-5.4,1.6-7.9c1-2.5,2.5-4.6,4.3-6.4c1.9-1.8,4.1-3.3,6.6-4.3
		c2.6-1.1,5.4-1.6,8.4-1.6c3,0,5.8,0.5,8.3,1.5s4.7,2.3,6.6,4c1.9,1.7,3.3,3.7,4.4,5.9s1.6,4.7,1.6,7.3c0,2.9-0.5,5.6-1.6,8.1
		c-1,2.5-2.5,4.8-4.4,6.7c-1.9,1.9-4.1,3.4-6.6,4.5C340.5,54.6,337.7,55.2,334.7,55.2"/>
</g>
<polygon class="st1" points="387.9,16.4 377,29.1 367.3,16.4 358.1,16.4 372.1,34.9 355.5,54.3 359.8,54.3 374.1,37.6 386.7,54.3
	396,54.3 379,31.8 392.2,16.4 "/>
<g>
	<defs>
		<rect id="SVGID_5_" width="396" height="70.4"/>
	</defs>
	<clipPath id="SVGID_6_">
		<use xlink:href="#SVGID_5_"  style="overflow:visible;"/>
	</clipPath>
	<path class="st3" d="M140,0h-3.8h-3.8c0.4,1.2,0.6,1.7,0.6,2.9c0,1.2-0.2,2.9-0.6,2.9h3.8h3.8c-0.4,0-0.6-1.7-0.6-2.9
		C139.3,1.7,139.5,1.2,140,0"/>
</g>
</svg>
